HIERARCHY
ROOT Hips
{
	OFFSET 0.00000 0.00000 0.00000
	CHANNELS 6 Xposition Yposition Zposition Zrotation Yrotation Xrotation 
	JOINT LHipJoint
	{
		OFFSET 0 0 0
		CHANNELS 3 Zrotation Yrotation Xrotation
		JOINT LeftHip
		{
			OFFSET 1.57093 -1.69714 0.87455
			CHANNELS 3 Zrotation Yrotation Xrotation
			JOINT LeftKnee
			{
				OFFSET 2.48056 -6.81529 0.00000
				CHANNELS 3 Zrotation Yrotation Xrotation
				JOINT LeftAnkle
				{
					OFFSET 2.62558 -7.21374 0.00000
					CHANNELS 3 Zrotation Yrotation Xrotation
					JOINT LeftToe
					{
						OFFSET 0.17911 -0.49210 2.16707
						CHANNELS 3 Zrotation Yrotation Xrotation
						End Site
						{
							OFFSET 0.00000 -0.00000 1.11848
						}
					}
				}
			}
		}
	}
	JOINT RHipJoint
	{
		OFFSET 0 0 0
		CHANNELS 3 Zrotation Yrotation Xrotation
		JOINT RightHip
		{
			OFFSET -1.69739 -1.69715 0.87455
			CHANNELS 3 Zrotation Yrotation Xrotation
			JOINT RightKnee
			{
				OFFSET -2.33658 -6.41972 0.00000
				CHANNELS 3 Zrotation Yrotation Xrotation
				JOINT RightAnkle
				{
					OFFSET -2.60856 -7.16696 0.00000
					CHANNELS 3 Zrotation Yrotation Xrotation
					JOINT RightToe
					{
						OFFSET -0.20854 -0.57296 2.11053
						CHANNELS 3 Zrotation Yrotation Xrotation
						End Site
						{
							OFFSET -0.00000 -0.00000 1.09848
						}
					}
				}
			}
		}
	}
	JOINT lowerback
	{
		OFFSET 0 0 0
		CHANNELS 3 Zrotation Yrotation Xrotation
		JOINT Chest
		{
			OFFSET 0.02563 2.15732 -0.03270
			CHANNELS 3 Zrotation Yrotation Xrotation
			JOINT Chest2
			{
				OFFSET 0.00281 2.14662 0.09285
				CHANNELS 3 Zrotation Yrotation Xrotation
				JOINT lowerneck
				{
					OFFSET 0 0 0
					CHANNELS 3 Zrotation Yrotation Xrotation
					JOINT Neck
					{
						OFFSET -0.04440 1.68397 0.17601
						CHANNELS 3 Zrotation Yrotation Xrotation
						JOINT Head
						{
							OFFSET 0.06040 1.66995 -0.35615
							CHANNELS 3 Zrotation Yrotation Xrotation
							End Site
							{
								OFFSET 0.02405 1.72189 -0.14044
							}
						}
					}
				}
				JOINT LeftCollar
				{
					OFFSET 0 0 0
					CHANNELS 3 Zrotation Yrotation Xrotation
					JOINT LeftShoulder
					{
						OFFSET 2.98955 1.90907 -0.21660
CHANNELS 3 Zrotation Xrotation Yrotation
						JOINT LeftElbow
						{
OFFSET 0 -4.913770 0.000000
CHANNELS 3 Zrotation Xrotation Yrotation
							JOINT LeftWrist
							{
OFFSET 0 -3.002910 -0.000000
CHANNELS 3 Zrotation Xrotation Yrotation
								JOINT lhand
								{
									OFFSET 0 0 0
CHANNELS 3 Zrotation Xrotation Yrotation
									JOINT LFingers
									{
OFFSET 0 -0.450920 -0.000000
CHANNELS 3 Zrotation Xrotation Yrotation
										End Site
										{
OFFSET 0 -0.363550 -0.000000
										}
									}
								}
								JOINT LThumb
								{
OFFSET 0 0.000000 0.000000
CHANNELS 3 Zrotation Xrotation Yrotation
									End Site
									{
OFFSET 0 -0.369100 0.369100
									}
								}
							}
						}
					}
				}
				JOINT RightCollar
				{
					OFFSET 0 0 0
					CHANNELS 3 Zrotation Yrotation Xrotation
					JOINT RightShoulder
					{
						OFFSET -2.80452 1.90886 -0.21152
CHANNELS 3 Zrotation Xrotation Yrotation
						JOINT RightElbow
						{
OFFSET 0 -4.867250 0.000000
CHANNELS 3 Zrotation Xrotation Yrotation
							JOINT RightWrist
							{
OFFSET 0 -3.171440 -0.000000
CHANNELS 3 Zrotation Xrotation Yrotation
								JOINT rhand
								{
									OFFSET 0 0 0
CHANNELS 3 Zrotation Xrotation Yrotation
									JOINT RFingers
									{
OFFSET 0 -0.419370 -0.000000
CHANNELS 3 Zrotation Xrotation Yrotation
										End Site
										{
OFFSET 0 -0.338100 -0.000000
										}
									}
								}
								JOINT RThumb
								{
OFFSET 0 0.000000 0.000000
CHANNELS 3 Zrotation Xrotation Yrotation
									End Site
									{
OFFSET 0 -0.343270 0.343270
									}
								}
							}
						}
					}
				}
			}
		}
	}
}
MOTION
Frames: 12
Frame Time: 0.008333333333333333
3.316100 13.737300 9.944000 171.365000 -1.383900 73.844800 0.000000 0.000000 0.000000 -22.568500 -1.920700 8.979800 2.314500 9.492500 27.348500 -0.893100 16.547400 -4.310100 0.612800 5.010200 13.937600 0.000000 0.000000 0.000000 27.863100 0.848900 30.144200 -1.184600 -6.907300 19.441000 -4.813300 -7.514600 40.327600 -0.403300 -4.076900 11.293200 5.534500 -4.115000 30.774500 -4.419400 -3.579500 1.673000 -6.460400 -1.853300 -14.969800 -2.168300 2.581700 -6.125600 -7.476700 9.894600 34.506900 -0.859000 5.048200 12.925700 0.000000 0.000000 0.000000 128.449600 -52.906900 22.396000 8.452100 -14.283000 1.060900 11.444100 10.107500 -4.718100 0.000000 0.000000 0.000000 -7.125000 0.000000 0.000000 -12.527700 34.573500 -3.271900 0.000000 0.000000 0.000000 -22.461600 34.582100 18.713500 -34.865500 -44.715800 -14.718600 -30.538600 -18.565900 -12.321800 0.000000 0.000000 0.000000 7.125000 0.000000 -0.000000 -2.268700 15.756400 -1.568600
3.352879 13.734387 9.893070 171.315401 -1.979777 73.546179 0.000000 0.000000 0.000000 -22.654413 -1.904990 11.034238 2.362963 9.584360 27.640932 -0.782316 15.548492 -3.792524 0.650694 5.159775 14.364810 0.000000 0.000000 0.000000 28.447535 1.046355 27.655966 -1.398348 -7.480485 21.147016 -4.527636 -7.351124 39.051031 -0.421592 -4.167323 11.548002 5.652073 -4.086468 30.717224 -4.077994 -3.417033 1.867046 -6.215407 -1.748958 -14.662342 -2.672500 2.680249 -5.979523 -7.948489 10.494773 34.631416 -0.858874 5.289853 13.004652 0.000000 0.000000 0.000000 133.366370 -50.941920 27.569103 8.158146 -13.808917 0.989522 12.040498 14.762840 -2.911430 0.000000 0.000000 0.000000 -7.125000 0.000000 0.000000 -11.769308 32.794229 -3.584165 0.000000 0.000000 0.000000 -22.312305 33.148653 20.807517 -28.771769 -39.814393 -10.615272 -29.736175 -19.904865 -9.647502 0.000000 0.000000 0.000000 7.125000 0.000000 0.000000 -1.955169 18.906403 -1.217278
3.362713 13.724108 9.787169 171.232873 -2.429166 71.938717 0.000000 0.000000 0.000000 -22.410170 -0.284511 14.486058 2.514475 9.864045 28.537576 -0.713611 15.015078 -2.656977 0.941336 6.177298 17.300291 0.000000 0.000000 0.000000 29.145335 0.771392 26.652248 -1.429035 -7.558756 21.381683 -3.911805 -7.391380 36.126246 -0.451636 -4.311430 11.954505 5.857892 -4.205335 32.061488 -3.628955 -3.226595 2.294842 -5.883061 -1.585634 -14.687077 -2.833219 2.662711 -5.960415 -8.744592 11.048014 34.949026 -1.038624 5.526502 13.242349 0.000000 0.000000 0.000000 137.386909 -48.614201 30.642575 8.067362 -13.661963 0.967940 13.010582 16.931299 -1.111438 0.000000 0.000000 0.000000 -7.125000 0.000000 0.000000 -10.766081 31.012491 -3.737885 0.000000 0.000000 0.000000 -22.451276 31.739633 22.997719 -24.227890 -35.400167 -7.839886 -27.979151 -21.812774 -6.046390 0.000000 0.000000 0.000000 7.125000 0.000000 0.000000 -0.923074 23.139407 -0.487859
3.355781 13.718600 9.672511 171.211396 -2.870353 69.881465 0.000000 0.000000 0.000000 -21.990818 1.906881 18.925095 2.650208 10.105959 29.320653 -0.627494 14.994484 0.534071 1.492074 7.713374 21.848462 0.000000 0.000000 0.000000 29.743517 0.311986 26.339862 -1.319059 -7.273910 20.529490 -3.030882 -7.862703 31.529577 -0.472042 -4.406391 12.222851 6.011103 -4.348947 33.822515 -3.134461 -2.994169 2.813244 -5.488188 -1.373465 -14.747867 -2.687440 2.585829 -5.997787 -9.505220 11.419332 35.245775 -1.284331 5.712285 13.489829 0.000000 0.000000 0.000000 140.986913 -46.228533 33.473881 8.031850 -13.604477 0.959642 13.757832 17.663190 1.525130 0.000000 0.000000 0.000000 -7.125000 0.000000 0.000000 -9.910486 28.355014 -4.069752 0.000000 0.000000 0.000000 -22.832508 30.255897 25.245146 -20.299876 -30.996834 -5.687407 -25.344692 -22.467095 -1.696015 0.000000 0.000000 0.000000 7.125000 0.000000 0.000000 0.957292 28.100384 0.388516
3.354266 13.729797 9.613625 171.318583 -3.239685 68.615985 0.000000 0.000000 0.000000 -21.464901 3.664342 23.193981 2.677903 10.154326 29.478032 -0.366694 15.183563 5.963290 1.825990 8.493852 24.224583 0.000000 0.000000 0.000000 30.224330 0.012536 25.948046 -1.065273 -6.560125 18.419125 -2.208328 -8.966044 26.694202 -0.363343 -3.870424 10.712522 6.198817 -4.394891 34.661415 -2.569111 -2.700036 3.262856 -5.083459 -1.151781 -14.481182 -3.582405 2.539855 -5.296359 -9.384509 11.084853 33.818779 -1.171840 5.487398 12.636993 0.000000 0.000000 0.000000 144.617615 -43.803617 38.210753 7.798151 -13.225169 0.905398 13.594644 20.403285 3.922331 0.000000 0.000000 0.000000 -7.125000 0.000000 0.000000 -9.837970 25.925739 -4.611037 0.000000 0.000000 0.000000 -23.241989 28.694906 27.273108 -16.695582 -26.449713 -3.953459 -21.469957 -22.406069 1.883356 0.000000 0.000000 0.000000 7.125000 0.000000 0.000000 4.113568 31.983583 1.307178
3.351368 13.747864 9.589904 171.384992 -3.536438 67.693207 0.000000 0.000000 0.000000 -20.959057 5.115795 27.311012 2.634241 10.078013 29.229775 0.312973 13.636465 12.997465 1.241704 7.053391 19.878894 0.000000 0.000000 0.000000 30.607846 -0.258482 26.188508 -0.714104 -5.395789 15.042169 -1.527086 -11.186421 22.326670 -0.268741 -3.334614 9.211899 6.479718 -4.413064 35.288089 -1.953820 -2.350236 3.644504 -4.704477 -0.919345 -14.201799 -5.297254 2.536205 -4.277174 -8.699497 10.468530 31.540487 -0.778882 5.087013 11.325753 0.000000 0.000000 0.000000 147.964502 -41.364735 45.633169 7.339205 -12.475972 0.803423 13.473821 27.476136 6.125869 0.000000 0.000000 0.000000 -7.125000 0.000000 0.000000 -9.784083 23.695538 -5.098377 0.000000 0.000000 0.000000 -23.333787 27.425305 28.046578 -13.749730 -22.372612 -2.734191 -17.046550 -20.422671 3.483723 0.000000 0.000000 0.000000 7.125000 0.000000 0.000000 7.814922 33.547012 2.210860
3.340603 13.761837 9.570704 171.497755 -4.038243 66.860304 0.000000 0.000000 0.000000 -20.440059 6.685741 30.762244 2.658698 10.120902 29.369158 1.062543 9.681090 18.624021 0.616724 5.022276 13.972830 0.000000 0.000000 0.000000 30.649761 -0.441294 27.439764 -0.347682 -3.774495 10.444761 -0.944929 -14.377073 18.771083 -0.320647 -3.636953 10.057737 6.506856 -4.377203 36.217645 -1.322562 -2.001432 3.800344 -4.159616 -0.689410 -14.184096 -5.539896 2.402186 -4.644645 -9.357832 10.720047 31.709232 -0.920534 5.148477 11.529892 0.000000 0.000000 0.000000 150.841541 -38.759684 54.517934 6.727678 -11.470128 0.676548 14.977856 37.486310 8.838752 0.000000 0.000000 0.000000 -7.125000 0.000000 0.000000 -8.576472 20.877869 -5.008517 0.000000 0.000000 0.000000 -23.145275 26.619604 26.734930 -11.570059 -19.155154 -1.960098 -12.717751 -16.778712 4.107141 0.000000 0.000000 0.000000 7.125000 0.000000 0.000000 11.400756 34.017421 3.122799
3.331415 13.781020 9.551599 171.795569 -4.879422 66.011719 0.000000 0.000000 0.000000 -19.469449 8.697755 33.112980 2.867974 10.477611 30.538256 1.604646 6.701400 22.705970 0.631289 5.082130 14.143361 0.000000 0.000000 0.000000 29.687816 -1.554586 31.126525 -0.028421 -0.743940 2.046477 -0.523655 -18.178853 17.138935 -0.572166 -4.838870 13.450622 5.999001 -4.239185 37.230599 -0.743446 -1.744747 3.935638 -3.361552 -0.484692 -14.342962 -5.256410 2.227407 -5.800174 -10.378098 11.475739 33.294843 -1.168340 5.466600 12.581789 0.000000 0.000000 0.000000 153.178898 -35.850053 62.446286 6.286610 -10.739212 0.591505 17.463333 46.310775 12.313187 0.000000 0.000000 0.000000 -7.125000 0.000000 0.000000 -6.788360 17.145534 -4.513540 0.000000 0.000000 0.000000 -22.758730 25.936418 23.394539 -10.021209 -16.771999 -1.481734 -8.395571 -15.626462 5.372931 0.000000 0.000000 0.000000 7.125000 0.000000 0.000000 15.113752 35.069620 3.793487
3.323070 13.807306 9.526155 172.206401 -5.933061 64.892409 0.000000 0.000000 0.000000 -17.919529 10.906036 34.452835 3.302692 11.168375 32.851313 2.383572 6.578931 27.891043 0.902856 6.051827 16.935942 0.000000 0.000000 0.000000 28.937065 -2.031114 32.370413 0.000000 0.000000 0.000000 -0.013011 -18.420579 13.057483 -0.690507 -5.311982 14.800581 5.219166 -4.095710 38.492717 -0.365079 -1.592029 4.133355 -2.599367 -0.301445 -14.532530 -6.503821 2.310469 -6.006959 -9.519721 11.636122 33.404766 -0.597747 5.499714 12.561124 0.000000 0.000000 0.000000 155.218970 -32.679188 67.112651 6.241254 -10.663933 0.583067 18.979149 50.588916 15.004305 0.000000 0.000000 0.000000 -7.125000 0.000000 0.000000 -5.806958 14.212559 -4.225103 0.000000 0.000000 0.000000 -22.053463 24.930688 18.212367 -8.807231 -14.852164 -1.150688 -4.762931 -16.459752 7.267773 0.000000 0.000000 0.000000 7.125000 0.000000 0.000000 18.473276 36.683934 3.940262
3.307688 13.824198 9.501589 172.624865 -7.182273 64.089975 0.000000 0.000000 0.000000 -16.590971 12.509162 34.287730 3.862673 11.974325 35.642619 3.366245 9.489201 33.218342 1.519400 7.771218 22.027811 0.000000 0.000000 0.000000 28.162329 -2.238795 33.109031 0.000000 0.000000 0.000000 0.111469 -15.362967 9.536722 -0.480393 -4.441535 12.322887 4.299056 -3.860530 39.458276 -0.162581 -1.479060 4.285140 -1.945225 -0.146946 -14.668861 -7.952745 7.337644 -5.935811 -6.024255 10.832887 34.270492 -0.174928 0.807409 12.327857 0.000000 0.000000 0.000000 157.125653 -29.475193 69.306853 6.420379 -10.961446 0.616684 19.320984 50.911976 15.351315 0.000000 0.000000 0.000000 -7.125000 0.000000 0.000000 -5.588562 13.814893 -4.112493 0.000000 0.000000 0.000000 -21.272641 23.487547 11.795275 -7.682531 -13.036538 -0.879648 -0.888980 -14.206451 9.710945 0.000000 0.000000 0.000000 7.125000 0.000000 0.000000 22.294084 38.697647 3.675419
3.277848 13.815475 9.468683 173.045484 -8.489342 63.944996 0.000000 0.000000 0.000000 -16.151121 13.020968 32.663690 4.340822 12.600252 37.890536 3.623697 12.440571 34.484179 2.570667 9.962462 28.857805 0.000000 0.000000 0.000000 27.281284 -2.431790 34.129185 0.000000 0.000000 0.000000 0.030522 -12.021755 8.011110 -0.362852 -3.869532 10.709910 3.263649 -3.494216 39.810998 0.026463 -1.373565 4.282981 -1.244347 -0.029006 -14.766537 -7.212110 7.575233 -6.634857 -6.728263 11.420080 35.834827 -0.549680 0.762173 13.270295 0.000000 0.000000 0.000000 158.644359 -26.694887 71.495787 6.656527 -11.352545 0.662419 19.359301 49.768428 14.209093 0.000000 0.000000 0.000000 -7.125000 0.000000 0.000000 -5.520935 15.004858 -3.921940 0.000000 0.000000 0.000000 -20.861091 21.635827 5.070165 -6.457075 -11.021844 -0.624329 1.110767 -7.052991 11.085687 0.000000 0.000000 0.000000 7.125000 0.000000 0.000000 24.365629 39.793996 3.360192
3.236165 13.783223 9.415418 173.565718 -9.799485 63.919027 0.000000 0.000000 0.000000 -16.676144 12.560045 30.420029 4.647234 12.975138 39.275571 3.186999 10.885398 32.250599 2.644465 10.093782 29.282836 0.000000 0.000000 0.000000 26.285369 -3.014230 35.894405 0.000000 0.000000 0.000000 -0.151040 -9.842936 9.214928 -0.363256 -3.871465 10.715413 2.510667 -2.639291 39.954870 0.196523 -1.423295 4.287425 -0.540720 -0.383767 -14.782126 -6.907524 7.632222 -7.039697 -7.175814 11.680908 36.804898 -0.785766 0.666542 13.872191 0.000000 0.000000 0.000000 159.889531 -24.295499 73.695402 6.886563 -11.732399 0.708434 19.359173 47.694322 13.624922 0.000000 0.000000 0.000000 -7.125000 0.000000 0.000000 -5.502479 15.616236 -3.836132 0.000000 0.000000 0.000000 -20.804857 19.306288 -3.816992 -5.072443 -8.706301 -0.386948 2.526038 5.265211 10.854120 0.000000 0.000000 0.000000 7.125000 0.000000 0.000000 25.433254 39.460143 3.761068
